<svg xmlns="http://www.w3.org/2000/svg" xmlns:xlink="http://www.w3.org/1999/xlink" version="1.1" x="0px" y="0px" viewBox="0 0 64 80" style="enable-background:new 0 0 64 64;" xml:space="preserve"><g><g><path d="M60.83,44.77H3.17C1.42,44.77,0,43.35,0,41.6V6.89c0-1.75,1.42-3.17,3.17-3.17h57.66c1.75,0,3.17,1.42,3.17,3.17V41.6    C64,43.35,62.58,44.77,60.83,44.77z M3.17,4.7c-1.21,0-2.19,0.98-2.19,2.19V41.6c0,1.21,0.98,2.19,2.19,2.19h57.66    c1.21,0,2.19-0.98,2.19-2.19V6.89c0-1.21-0.98-2.19-2.19-2.19H3.17z"/></g><g><g><path d="M51.38,60.28H12.62c-0.27,0-0.49-0.22-0.49-0.49v-3.2c0-1.83,1.49-3.33,3.33-3.33h33.1c1.83,0,3.33,1.49,3.33,3.33v3.2     C51.88,60.06,51.66,60.28,51.38,60.28z M13.11,59.3h37.78v-2.71c0-1.29-1.05-2.34-2.34-2.34h-33.1c-1.29,0-2.34,1.05-2.34,2.34     V59.3z"/></g></g><g><path d="M20.59,54.24c-0.05,0-0.11-0.01-0.16-0.03c-0.26-0.09-0.39-0.37-0.3-0.63l3.32-9.47c0.09-0.26,0.37-0.39,0.63-0.3    c0.26,0.09,0.39,0.37,0.3,0.63l-3.32,9.47C20.98,54.12,20.79,54.24,20.59,54.24z"/></g><g><path d="M43.41,54.24c-0.2,0-0.39-0.13-0.46-0.33l-3.32-9.47c-0.09-0.26,0.05-0.54,0.3-0.63c0.26-0.09,0.54,0.05,0.63,0.3    l3.32,9.47c0.09,0.26-0.05,0.54-0.3,0.63C43.52,54.24,43.46,54.24,43.41,54.24z"/></g><g><g><path d="M18.64,13.91c-0.27,0-0.49-0.22-0.49-0.49v-2.58c0-0.27,0.22-0.49,0.49-0.49h2.42c0.27,0,0.49,0.22,0.49,0.49     c0,0.27-0.22,0.49-0.49,0.49h-1.93v2.09C19.13,13.69,18.91,13.91,18.64,13.91z"/></g><g><path d="M21.06,38.15h-2.42c-0.27,0-0.49-0.22-0.49-0.49v-2.58c0-0.27,0.22-0.49,0.49-0.49s0.49,0.22,0.49,0.49v2.09h1.93     c0.27,0,0.49,0.22,0.49,0.49C21.55,37.93,21.33,38.15,21.06,38.15z"/></g><g><path d="M45.36,13.91c-0.27,0-0.49-0.22-0.49-0.49v-2.09h-1.93c-0.27,0-0.49-0.22-0.49-0.49c0-0.27,0.22-0.49,0.49-0.49h2.42     c0.27,0,0.49,0.22,0.49,0.49v2.58C45.85,13.69,45.63,13.91,45.36,13.91z"/></g><g><path d="M45.36,38.15h-2.42c-0.27,0-0.49-0.22-0.49-0.49c0-0.27,0.22-0.49,0.49-0.49h1.93v-2.09c0-0.27,0.22-0.49,0.49-0.49     c0.27,0,0.49,0.22,0.49,0.49v2.58C45.85,37.93,45.63,38.15,45.36,38.15z"/></g><g><path d="M32,24.84c-0.09,0-0.17-0.02-0.25-0.07l-10.18-6.05c-0.15-0.09-0.24-0.25-0.24-0.43s0.1-0.34,0.25-0.42l10.14-5.81     c0.15-0.09,0.34-0.09,0.49,0l10.14,5.81c0.15,0.09,0.25,0.25,0.25,0.42c0,0.17-0.09,0.34-0.24,0.43l-10.1,6.05     C32.17,24.82,32.09,24.84,32,24.84z M22.8,18.31l9.2,5.47l9.13-5.47l-9.17-5.25L22.8,18.31z"/></g><g><path d="M31.96,36.45c-0.09,0-0.17-0.02-0.25-0.07L21.57,30.4c-0.15-0.09-0.24-0.25-0.24-0.42V18.3c0-0.27,0.22-0.49,0.49-0.49     s0.49,0.22,0.49,0.49v11.4l9.65,5.69l9.64-5.55V18.3c0-0.27,0.22-0.49,0.49-0.49c0.27,0,0.49,0.22,0.49,0.49v11.82     c0,0.18-0.09,0.34-0.25,0.43l-10.14,5.84C32.13,36.43,32.04,36.45,31.96,36.45z"/></g><g><path d="M32,36.45c-0.27,0-0.49-0.22-0.49-0.49V24.35c0-0.27,0.22-0.49,0.49-0.49c0.27,0,0.49,0.22,0.49,0.49v11.61     C32.49,36.23,32.27,36.45,32,36.45z"/></g></g></g><text x="0" y="79" fill="#000000" font-size="5px" font-weight="bold" font-family="'Helvetica Neue', Helvetica, Arial-Unicode, Arial, Sans-serif"></text><text x="0" y="84" fill="#000000" font-size="5px" font-weight="bold" font-family="'Helvetica Neue', Helvetica, Arial-Unicode, Arial, Sans-serif"></text></svg>