<svg xmlns="http://www.w3.org/2000/svg" viewBox="0 0 64 80" x="0px" y="0px"><g><g><g><g><path d="M63,47H1.04688a1,1,0,0,1,0-2H63a1,1,0,0,1,0,2Z"/><path d="M61,51H3a3.00328,3.00328,0,0,1-3-3V8.00391a3.00328,3.00328,0,0,1,3-3H61a3.00328,3.00328,0,0,1,3,3V48A3.00328,3.00328,0,0,1,61,51ZM3,7.00391a1.00067,1.00067,0,0,0-1,1V48a1.00067,1.00067,0,0,0,1,1H61a1.00067,1.00067,0,0,0,1-1V8.00391a1.00067,1.00067,0,0,0-1-1Z"/><path d="M21.0127,55.99609a.99942.99942,0,0,1-1-1V50a1,1,0,0,1,2,0v4.99609A.99942.99942,0,0,1,21.0127,55.99609Z"/><path d="M43.03418,55.99609a.99942.99942,0,0,1-1-1V50a1,1,0,0,1,2,0v4.99609A.99942.99942,0,0,1,43.03418,55.99609Z"/><path d="M12.99414,57.99609a.99942.99942,0,0,1-1-1,3.00328,3.00328,0,0,1,3-3,1,1,0,0,1,0,2,1.00068,1.00068,0,0,0-1,1A.99942.99942,0,0,1,12.99414,57.99609Z"/><path d="M51.00586,57.99609a.99942.99942,0,0,1-1-1,1.00068,1.00068,0,0,0-1-1,1,1,0,0,1,0-2,3.00328,3.00328,0,0,1,3,3A.99942.99942,0,0,1,51.00586,57.99609Z"/><path d="M49.00586,55.99609H14.99414a1,1,0,1,1,0-2H49.00586a1,1,0,0,1,0,2Z"/><path d="M12.99414,58.99609a.99942.99942,0,0,1-1-1v-1a1,1,0,1,1,2,0v1A.99942.99942,0,0,1,12.99414,58.99609Z"/><path d="M51.00586,58.99609H12.99414a1,1,0,1,1,0-2H51.00586a1,1,0,0,1,0,2Z"/><path d="M51.00586,58.99609a.99942.99942,0,0,1-1-1v-1a1,1,0,1,1,2,0v1A.99942.99942,0,0,1,51.00586,58.99609Z"/></g><path d="M32.043,48.99609a1,1,0,0,1-.00977-2H32.043a1,1,0,0,1,0,2Z"/></g><g><path d="M11,23.99414a3,3,0,1,1,3-3A3.00328,3.00328,0,0,1,11,23.99414Zm0-4a1,1,0,1,0,1,1A1.00067,1.00067,0,0,0,11,19.99414Z"/><path d="M16,26.99512H5.99609a1,1,0,1,1,0-2H16a1,1,0,0,1,0,2Z"/><path d="M16,30H5.99609a1,1,0,0,1,0-2H16a1,1,0,0,1,0,2Z"/><path d="M16,33.00293H5.99609a1,1,0,0,1,0-2H16a1,1,0,0,1,0,2Z"/><path d="M11.999,36.00781H9.99707a1,1,0,0,1,0-2H11.999a1,1,0,1,1,0,2Z"/></g><g><path d="M53.00293,23.99414a3,3,0,1,1,3-3A3.00328,3.00328,0,0,1,53.00293,23.99414Zm0-4a1,1,0,1,0,1,1A1.00067,1.00067,0,0,0,53.00293,19.99414Z"/><path d="M58.00293,26.99512H47.999a1,1,0,0,1,0-2H58.00293a1,1,0,1,1,0,2Z"/><path d="M58.00293,30H47.999a1,1,0,0,1,0-2H58.00293a1,1,0,0,1,0,2Z"/><path d="M58.00293,33.00293H47.999a1,1,0,0,1,0-2H58.00293a1,1,0,0,1,0,2Z"/><path d="M54.002,36.00781H52a1,1,0,0,1,0-2h2.002a1,1,0,0,1,0,2Z"/></g></g><path d="M33.001,36.99609a1.00037,1.00037,0,0,1-.52246-1.85351c.04394-.02637,4.37109-2.708,5.45214-6.04492a1,1,0,0,1,1.90235.61718c-1.31055,4.0459-6.1084,7.01075-6.3125,7.13477A.98866.98866,0,0,1,33.001,36.99609Z"/><path d="M30.999,36.99609a.98866.98866,0,0,1-.51953-.14648c-.21972-.13379-5.37695-3.32324-6.44922-7.61133a.99951.99951,0,0,1,1.93946-.48437c.873,3.48828,5.50488,6.36035,5.55175,6.38867a1.00037,1.00037,0,0,1-.52246,1.85351Z"/><path d="M39.999,35.99609a.99958.99958,0,0,1-.97949-.80371l-4-20a.99993.99993,0,1,1,1.96094-.39258l4,20a1,1,0,0,1-.78418,1.17676A.97907.97907,0,0,1,39.999,35.99609Z"/><path d="M42.98926,23.99609a.99942.99942,0,0,1-1-1,.5.5,0,1,0-1,0,1,1,0,0,1-2,0,2.5,2.5,0,1,1,5,0A.99942.99942,0,0,1,42.98926,23.99609Z"/><path d="M40,28.99609a1,1,0,0,1,0-2c.877,0,1.98926-1.88379,1.98926-4a1,1,0,1,1,2,0C43.98926,25.89355,42.38672,28.99609,40,28.99609Z"/><path d="M40,35.99609a.99942.99942,0,0,1-1-1v-12a1,1,0,1,1,2,0v12A.99942.99942,0,0,1,40,35.99609Z"/><path d="M42.999,32.99609a.99512.99512,0,0,1-.57226-.18066L39.416,30.708a1,1,0,1,1,1.14648-1.63867l3.01074,2.10742a1,1,0,0,1-.57422,1.81933Z"/><path d="M43,32.99609a.99942.99942,0,0,1-1-1V22.88672a1,1,0,1,1,2,0v9.10937A.99942.99942,0,0,1,43,32.99609Z"/><path d="M42.99023,23.99609c-.03027,0-.06152-.001-.09277-.0039a1.00141,1.00141,0,0,1-.9043-1.08789c.38965-4.23535-.30078-7.35645-2.05175-9.27539C38.3252,11.85742,35.72754,10.99609,32,10.99609a1,1,0,0,1,0-2c4.32129,0,7.40234,1.07422,9.419,3.28516,2.1455,2.35156,3.00878,5.9873,2.5664,10.80664A1.00077,1.00077,0,0,1,42.99023,23.99609Z"/><path d="M31,29.99609a1.00175,1.00175,0,0,1-.92969-.63086,12.62547,12.62547,0,0,1,.99219-12.002c1.40918-2.07715,3.30176-3.36719,4.9375-3.36719a1,1,0,0,1,0,2c-.791,0-2.17285.85547-3.2832,2.49024A10.6511,10.6511,0,0,0,31.92969,28.627.99963.99963,0,0,1,31,29.99609Z"/><path d="M22,20.99609a.99942.99942,0,0,1-1-1,11.01245,11.01245,0,0,1,11-11,1,1,0,0,1,0,2,8.90408,8.90408,0,0,0-9,9A.99942.99942,0,0,1,22,20.99609Z"/><path d="M31,29.99609a10.01177,10.01177,0,0,1-10-10,1,1,0,1,1,2,0,8.00916,8.00916,0,0,0,8,8,1,1,0,0,1,0,2Z"/><path d="M33,36.99609H31a1,1,0,0,1,0-2h2a1,1,0,0,1,0,2Z"/><path d="M25,29.99609a1.00094,1.00094,0,0,1-.959-.71582l-1-3.37011a1.0002,1.0002,0,1,1,1.918-.56836l1,3.37011a1.00051,1.00051,0,0,1-.6748,1.24317A.99037.99037,0,0,1,25,29.99609Z"/><path d="M21.49023,33.23633a4.70926,4.70926,0,0,1-1.90918-.332,1.00018,1.00018,0,0,1,.8379-1.81641c1.01757.47168,4.17382-.2168,4.67773-.74707a1.01959,1.01959,0,0,1,1.41113-.06934.9803.9803,0,0,1,.10254,1.377C25.8623,32.51758,23.45508,33.23633,21.49023,33.23633Z"/><path d="M20.001,32.99609a1,1,0,0,1-.59961-1.80078c1.47851-1.10449,2.73828-4.05469,1.84082-9.02148a1.00029,1.00029,0,0,1,1.96875-.35547c.89941,4.98047-.07715,9.084-2.61231,10.97852A.99236.99236,0,0,1,20.001,32.99609Z"/><path d="M35.51953,25.93848a1,1,0,0,1-.00976-2h.00976a1,1,0,0,1,0,2Z"/><path d="M34,25.49414a1,1,0,0,1-.68945-1.72461,4.3783,4.3783,0,0,1,4.956-.65723.99949.99949,0,0,1-.93359,1.76758,2.35255,2.35255,0,0,0-2.64356.33887A.99853.99853,0,0,1,34,25.49414Z"/><path d="M33,32.99609H31a1,1,0,1,1,0-2h2a1,1,0,0,1,0,2Z"/><path d="M36,38.99609a.99942.99942,0,0,1-1-1V33.625a1,1,0,0,1,2,0v4.37109A.99942.99942,0,0,1,36,38.99609Z"/><path d="M44.999,42.99609a.99493.99493,0,0,1-.40527-.08593l-9-4a1.00028,1.00028,0,0,1,.8125-1.82813l9,4a1.00009,1.00009,0,0,1-.40723,1.91406Z"/><path d="M45,46.99609a.99942.99942,0,0,1-1-1v-4a1,1,0,0,1,2,0v4A.99942.99942,0,0,1,45,46.99609Z"/><path d="M28,38.99609a.99942.99942,0,0,1-1-1V33.625a1,1,0,0,1,2,0v4.37109A.99942.99942,0,0,1,28,38.99609Z"/><path d="M19.001,42.99609a1.00009,1.00009,0,0,1-.40723-1.91406l9-4a1.00028,1.00028,0,0,1,.8125,1.82813l-9,4A.99493.99493,0,0,1,19.001,42.99609Z"/><path d="M19,46.99609a.99942.99942,0,0,1-1-1v-4a1,1,0,0,1,2,0v4A.99942.99942,0,0,1,19,46.99609Z"/><path d="M39,43.99609a.99942.99942,0,0,1-1-1v-3.668a1,1,0,0,1,2,0v3.668A.99942.99942,0,0,1,39,43.99609Z"/><path d="M25,43.99609a.99942.99942,0,0,1-1-1v-3.668a1,1,0,0,1,2,0v3.668A.99942.99942,0,0,1,25,43.99609Z"/><path d="M41,43.99609H23a1,1,0,0,1,0-2H41a1,1,0,0,1,0,2Z"/><path d="M41,47a.99943.99943,0,0,1-1-1V42.99609a1,1,0,0,1,2,0V46A.99943.99943,0,0,1,41,47Z"/><path d="M23,47a.99943.99943,0,0,1-1-1V42.99609a1,1,0,0,1,2,0V46A.99943.99943,0,0,1,23,47Z"/><path d="M33.001,32.99609a1,1,0,0,1-.44825-1.89453l1-.5a1.00012,1.00012,0,0,1,.89454,1.78906l-1,.5A1.00108,1.00108,0,0,1,33.001,32.99609Z"/></g><text x="0" y="79" fill="#000000" font-size="5px" font-weight="bold" font-family="'Helvetica Neue', Helvetica, Arial-Unicode, Arial, Sans-serif"></text><text x="0" y="84" fill="#000000" font-size="5px" font-weight="bold" font-family="'Helvetica Neue', Helvetica, Arial-Unicode, Arial, Sans-serif"></text></svg>