<svg xmlns="http://www.w3.org/2000/svg" version="1.1" viewBox="-5.0 -10.0 110.0 135.0">
 <path d="m90.383 89.258h-80.762c-5.2969 0-9.6055-4.3086-9.6055-9.6055v-59.305c0-5.2969 4.3086-9.6094 9.6055-9.6094h80.762c5.2969 0 9.6094 4.3086 9.6094 9.6094v59.305c0 5.2969-4.3086 9.6055-9.6094 9.6055zm-80.762-75.859c-3.8281 0-6.9453 3.1172-6.9453 6.9453v59.305c0 3.832 3.1172 6.9453 6.9453 6.9453h80.762c3.832 0 6.9453-3.1172 6.9453-6.9453v-59.305c0-3.8281-3.1172-6.9453-6.9453-6.9453z" fill-rule="evenodd"/>
 <path d="m36.676 55.934c-0.23047 0-0.46484-0.058594-0.67188-0.17969-0.41016-0.23828-0.66016-0.67578-0.66016-1.1484v-29.809c0-0.47266 0.25-0.90625 0.65625-1.1445 0.40625-0.24219 0.90625-0.24609 1.3203-0.019532l26.648 14.75c0.42188 0.23438 0.68359 0.67578 0.6875 1.1562 0.003906 0.48047-0.25781 0.92578-0.67578 1.1641l-26.648 15.059c-0.20312 0.11328-0.42969 0.17188-0.65625 0.17188zm1.332-28.883v25.273l22.594-12.766-22.594-12.504z" fill-rule="evenodd"/>
 <path d="m98.66 67.98h-97.316c-0.73438 0-1.332-0.59766-1.332-1.332 0-0.73438 0.59766-1.332 1.332-1.332h97.316c0.73438 0 1.332 0.59766 1.332 1.332 0 0.73437-0.59766 1.332-1.332 1.332z" fill-rule="evenodd"/>
 <path d="m10.395 84.969c-0.23047 0-0.46484-0.058594-0.67188-0.17969-0.41016-0.23828-0.66016-0.67578-0.66016-1.1484v-12.703c0-0.47266 0.25-0.90625 0.65625-1.1445s0.90625-0.24609 1.3203-0.019531l11.355 6.2852c0.42188 0.23438 0.68359 0.67578 0.6875 1.1562 0.003907 0.48047-0.25781 0.92578-0.67578 1.1641l-11.355 6.418c-0.20312 0.11328-0.42969 0.17188-0.65625 0.17188zm1.332-11.777v8.168l7.3008-4.125z" fill-rule="evenodd"/>
 <path d="m89.625 78.957h-55.422c-0.73438 0-1.332-0.59766-1.332-1.332s0.59766-1.332 1.332-1.332h55.422c0.73438 0 1.332 0.59766 1.332 1.332s-0.59766 1.332-1.3281 1.332z" fill-rule="evenodd"/>
 <path d="m61.91 82.578c-0.73438 0-1.332-0.59766-1.332-1.332v-7.2422c0-0.73438 0.59766-1.332 1.332-1.332s1.332 0.59766 1.332 1.332v7.2422c0 0.73438-0.59375 1.332-1.332 1.332z" fill-rule="evenodd"/>
<text x="0.0" y="117.5" font-size="5.0" font-weight="bold" font-family="Arbeit Regular, Helvetica, Arial-Unicode, Arial, Sans-serif" fill="#000000"></text><text x="0.0" y="122.5" font-size="5.0" font-weight="bold" font-family="Arbeit Regular, Helvetica, Arial-Unicode, Arial, Sans-serif" fill="#000000"></text></svg>